<?xml version="1.0" standalone="no"?>
<!DOCTYPE svg PUBLIC "-//W3C//DTD SVG 20010904//EN"
 "http://www.w3.org/TR/2001/REC-SVG-20010904/DTD/svg10.dtd">
<svg version="1.0" xmlns="http://www.w3.org/2000/svg"
 width="840.000000pt" height="296.000000pt" viewBox="0 0 840.000000 296.000000"
 preserveAspectRatio="xMidYMid meet">

<g transform="translate(0.000000,296.000000) scale(0.100000,-0.100000)"
fill="#000000" stroke="none">
<path d="M3718 2534 c-15 -8 -37 -29 -50 -47 -12 -18 -26 -33 -30 -35 -4 -2
-8 -10 -8 -18 0 -8 -4 -14 -10 -14 -5 0 -10 -5 -10 -11 0 -5 -38 -69 -85 -140
-47 -72 -85 -134 -85 -139 0 -4 -3 -10 -7 -12 -11 -4 -63 -86 -63 -98 0 -5 -4
-10 -9 -10 -5 0 -14 -13 -21 -30 -7 -16 -16 -30 -21 -30 -5 0 -9 -6 -9 -12 0
-7 -14 -29 -31 -48 -16 -19 -37 -48 -46 -65 -9 -16 -19 -32 -22 -35 -3 -3 -12
-17 -20 -32 -8 -15 -22 -37 -33 -47 -10 -11 -18 -27 -18 -35 0 -8 -3 -16 -7
-18 -11 -4 -63 -86 -63 -98 0 -6 42 -10 109 -10 l109 0 14 30 c7 17 16 30 20
30 5 0 8 5 8 10 0 12 52 94 63 98 4 2 7 8 7 14 0 5 14 29 30 53 17 24 30 46
30 50 0 3 4 11 10 18 47 57 60 76 60 86 0 6 4 11 9 11 5 0 14 14 21 30 7 17
16 30 21 30 5 0 9 5 9 10 0 6 29 56 65 111 36 55 65 104 65 109 0 6 4 10 8 10
5 0 15 12 23 28 28 54 42 47 95 -45 16 -29 32 -53 37 -53 4 0 7 -7 7 -15 0 -9
9 -25 20 -37 11 -12 20 -28 20 -35 0 -7 5 -13 10 -13 6 0 10 -4 10 -10 0 -5
20 -41 45 -80 25 -39 45 -77 45 -85 0 -13 -34 -15 -240 -15 -141 0 -240 -4
-240 -9 0 -5 7 -16 15 -25 8 -8 15 -17 15 -21 0 -4 14 -26 30 -51 l31 -44 250
0 c191 0 253 -3 262 -13 17 -18 47 -69 54 -89 3 -10 9 -18 14 -18 5 0 9 -7 9
-15 0 -8 4 -15 9 -15 5 0 13 -9 16 -20 6 -18 15 -20 116 -20 60 0 109 4 109 9
0 5 -7 16 -15 25 -8 8 -15 17 -15 20 0 3 -29 51 -65 106 -36 55 -65 105 -65
109 0 5 -4 11 -9 13 -4 2 -29 35 -55 73 -25 39 -51 75 -56 82 -6 7 -10 17 -10
23 0 5 -4 10 -10 10 -5 0 -10 7 -10 15 0 8 -4 15 -10 15 -5 0 -10 7 -10 15 0
8 -4 15 -10 15 -5 0 -10 7 -10 16 0 20 -81 154 -92 154 -5 0 -8 9 -8 19 0 11
-4 21 -9 23 -11 4 -101 144 -101 157 0 6 -4 11 -10 11 -5 0 -10 5 -10 10 0 13
-38 50 -68 68 -28 16 -90 14 -124 -4z"/>
<path d="M8055 2540 c-3 -5 -13 -10 -21 -10 -64 0 -79 -145 -19 -184 52 -34
165 -5 165 43 0 9 6 23 12 29 10 10 10 17 0 32 -6 11 -12 24 -12 30 0 37 -107
88 -125 60z m76 -31 c51 -27 48 -111 -4 -146 -44 -30 -58 -29 -101 10 -38 35
-44 59 -24 102 16 36 89 56 129 34z"/>
<path d="M8044 2486 c-9 -24 1 -99 14 -104 7 -2 12 5 12 17 0 27 7 26 29 0 16
-20 17 -19 18 34 1 49 -1 56 -20 61 -34 9 -47 7 -53 -8z m49 -12 c8 -8 -3 -34
-14 -34 -5 0 -9 9 -9 20 0 19 11 26 23 14z"/>
<path d="M580 2518 c-61 -25 -78 -34 -130 -67 -30 -18 -72 -52 -92 -74 -37
-40 -96 -150 -117 -218 -23 -74 -9 -255 22 -285 4 -4 7 -14 7 -21 0 -17 63
-117 93 -147 34 -34 119 -90 158 -105 19 -7 43 -17 54 -21 46 -19 107 -23 434
-27 230 -2 348 0 355 7 5 5 25 10 42 10 18 0 36 5 39 10 3 6 15 10 25 10 41 0
210 120 210 149 0 6 4 11 8 11 13 0 50 71 77 147 59 162 10 367 -118 495 -61
61 -105 89 -183 116 -58 21 -76 22 -460 21 -255 0 -408 -4 -424 -11z m813
-171 c122 -46 217 -177 217 -302 0 -54 -19 -113 -54 -165 -39 -59 -69 -85
-136 -118 l-55 -27 -360 0 -360 0 -51 28 c-65 36 -93 62 -130 117 -58 86 -68
172 -33 266 29 76 67 123 137 169 75 49 118 54 462 52 274 -2 321 -5 363 -20z"/>
<path d="M1892 2043 l3 -488 90 0 90 0 5 405 5 405 310 3 c202 2 326 -1 355
-8 46 -12 100 -53 100 -77 0 -7 5 -13 10 -13 6 0 10 -28 10 -65 0 -37 -4 -65
-10 -65 -5 0 -10 -7 -10 -16 0 -9 -10 -25 -22 -36 -52 -45 -76 -48 -370 -48
l-279 0 25 -25 c14 -14 28 -25 31 -25 3 0 21 -16 41 -35 19 -19 47 -43 62 -52
32 -21 57 -41 86 -68 11 -11 48 -42 81 -70 33 -27 71 -61 85 -75 14 -14 48
-43 75 -65 28 -21 57 -47 66 -57 14 -16 35 -18 153 -18 124 0 167 9 119 24
-10 3 -31 18 -48 34 -16 15 -55 47 -85 72 -30 25 -64 53 -75 64 -11 10 -36 30
-55 45 -39 29 -80 68 -80 75 0 2 19 6 43 9 128 17 167 26 207 52 58 37 80 61
110 119 22 44 25 62 25 160 0 105 -15 176 -37 176 -5 0 -8 6 -8 14 0 21 -74
83 -132 111 l-52 25 -463 0 -463 0 2 -487z"/>
<path d="M4750 2518 c-89 -38 -118 -53 -149 -76 -49 -37 -101 -89 -101 -102 0
-5 -4 -10 -9 -10 -4 0 -25 -37 -46 -82 -38 -81 -39 -85 -39 -203 0 -119 0
-121 38 -198 39 -80 143 -198 186 -212 11 -3 20 -11 20 -16 0 -5 9 -9 20 -9
11 0 20 -4 20 -10 0 -5 9 -10 19 -10 11 0 23 -4 26 -10 3 -5 24 -10 45 -10 21
0 42 -4 45 -10 4 -6 124 -10 326 -10 343 0 330 -2 358 53 8 15 18 27 23 27 4
0 8 6 8 13 0 6 9 23 20 37 11 14 20 30 20 37 0 9 -94 13 -382 15 -382 3 -383
3 -428 27 -47 25 -140 111 -140 130 0 6 -4 11 -10 11 -5 0 -10 9 -10 19 0 11
-4 23 -10 26 -6 3 -10 48 -10 101 0 56 4 94 10 94 6 0 10 6 10 13 0 18 24 67
33 67 4 0 7 5 7 11 0 10 28 40 79 82 12 9 28 17 36 17 7 0 16 4 19 9 12 19 73
24 374 30 l313 6 17 30 c9 17 20 32 25 33 4 2 7 10 7 18 0 8 5 14 10 14 6 0
10 7 10 15 0 8 5 15 10 15 6 0 10 7 10 15 0 13 -50 15 -392 14 -255 0 -402 -4
-418 -11z"/>
<path d="M5682 2067 c3 -418 5 -465 20 -480 9 -9 24 -17 32 -17 9 0 16 -4 16
-10 0 -7 155 -10 444 -10 l443 0 37 55 c20 30 36 57 36 60 0 3 7 13 15 22 8
10 16 23 18 28 1 6 -151 12 -433 15 l-435 5 -3 398 -2 397 -95 0 -96 0 3 -463z"/>
<path d="M7070 2521 c-8 -5 -44 -22 -79 -37 -67 -30 -183 -133 -196 -174 -3
-11 -11 -20 -16 -20 -5 0 -9 -9 -9 -20 0 -11 -4 -20 -10 -20 -5 0 -10 -9 -10
-19 0 -11 -4 -22 -9 -25 -30 -19 -30 -316 0 -316 5 0 9 -7 9 -15 0 -18 31 -75
73 -133 55 -77 193 -161 292 -178 22 -3 183 -8 357 -11 l317 -4 46 73 c26 40
51 75 56 76 5 2 9 10 9 17 0 11 -69 14 -382 17 -415 4 -402 2 -491 62 -31 21
-107 122 -107 143 0 11 73 13 399 13 l400 0 18 30 c9 16 21 30 25 30 4 0 8 5
8 11 0 5 11 27 25 47 14 20 25 42 25 49 0 10 -92 13 -444 13 -283 0 -447 4
-451 10 -18 29 77 149 149 189 58 33 140 41 427 41 l277 0 31 48 c17 26 35 52
41 59 5 7 10 17 10 23 0 5 5 10 10 10 6 0 10 5 10 10 0 12 -788 13 -810 1z"/>
<path d="M368 963 l-48 -4 0 -410 0 -409 85 0 85 0 0 325 c0 210 4 325 10 325
6 0 10 -6 10 -14 0 -8 9 -31 19 -53 62 -125 71 -146 71 -159 0 -8 5 -14 10
-14 6 0 10 -9 10 -20 0 -11 5 -20 10 -20 6 0 10 -7 10 -15 0 -8 9 -30 20 -50
11 -20 20 -42 20 -49 0 -8 3 -16 8 -18 10 -4 62 -115 62 -133 0 -8 5 -15 10
-15 6 0 10 -9 10 -20 0 -11 5 -20 10 -20 6 0 10 -9 10 -19 0 -27 18 -31 141
-31 l109 0 0 405 0 405 -26 10 c-33 13 -100 13 -125 0 -18 -10 -19 -24 -19
-295 0 -157 -3 -285 -7 -285 -5 0 -19 24 -32 53 -49 106 -171 362 -198 412 -5
11 -18 36 -28 55 -38 74 -51 77 -237 63z"/>
<path d="M1235 958 c-13 -8 -15 -59 -15 -398 0 -213 3 -395 6 -404 5 -14 40
-16 286 -16 l279 0 -3 73 -3 72 -192 3 -193 2 0 105 0 105 103 1 c93 1 165 3
225 7 20 2 22 7 22 67 l0 65 -175 0 -175 0 0 90 0 90 185 0 186 0 -3 73 -3 72
-257 1 c-142 0 -264 -4 -273 -8z"/>
<path d="M1965 963 c-97 -6 -96 -5 -93 -76 l3 -62 118 -3 117 -3 0 -323 c0
-179 3 -331 6 -340 5 -13 23 -16 90 -16 l84 0 0 340 0 340 120 0 121 0 -3 72
-3 72 -255 1 c-140 0 -277 -1 -305 -2z"/>
<path d="M2830 958 c-107 -45 -149 -79 -176 -143 -15 -37 -4 -156 18 -183 23
-29 62 -62 76 -62 6 0 12 -4 12 -10 0 -5 11 -10 24 -10 14 0 28 -4 31 -10 3
-5 21 -10 40 -10 19 0 37 -4 40 -10 3 -5 16 -10 27 -10 43 0 160 -45 181 -69
20 -23 28 -73 17 -113 -10 -33 -50 -78 -70 -78 -6 0 -10 -4 -10 -10 0 -6 -38
-10 -95 -10 -57 0 -95 4 -95 10 0 6 -7 10 -15 10 -33 0 -75 59 -75 104 0 25
-2 26 -65 26 -61 0 -65 -1 -65 -23 0 -75 62 -169 132 -201 68 -30 204 -43 262
-26 114 35 176 78 207 147 24 52 25 151 3 196 -19 39 -83 97 -106 97 -9 0 -20
5 -23 10 -3 6 -17 10 -30 10 -13 0 -26 4 -29 8 -3 5 -42 17 -88 27 -153 34
-199 71 -184 147 7 37 52 82 92 92 56 15 126 18 137 7 6 -6 19 -11 29 -11 10
0 18 -4 18 -10 0 -5 6 -10 14 -10 8 0 22 -18 32 -40 l18 -40 58 0 c54 0 58 2
58 23 0 42 -48 124 -80 137 -17 7 -30 15 -30 19 0 27 -235 42 -290 19z"/>
<path d="M3420 713 c0 -224 14 -403 32 -403 4 0 8 -7 8 -15 0 -33 71 -101 135
-130 72 -33 184 -51 225 -36 18 6 46 11 61 11 16 0 29 5 29 10 0 6 7 10 17 10
31 0 133 90 133 118 0 6 5 12 10 12 6 0 10 11 10 24 0 14 5 28 10 31 6 4 10
117 10 306 l0 299 -55 0 -55 0 0 -254 c0 -139 -5 -277 -10 -306 -11 -56 -51
-120 -76 -120 -7 0 -14 -3 -14 -8 0 -23 -171 -44 -185 -22 -3 5 -17 10 -31 10
-13 0 -24 5 -24 10 0 6 -7 10 -16 10 -9 0 -25 10 -36 23 -45 51 -48 75 -48
373 l0 284 -65 0 -65 0 0 -237z"/>
<path d="M4330 545 l0 -405 55 0 55 0 0 405 0 405 -55 0 -55 0 0 -405z"/>
<path d="M4600 905 l0 -44 138 -3 137 -3 3 -357 2 -358 54 0 c40 0 55 4 60 16
3 9 6 171 6 360 l0 344 130 0 130 0 0 45 0 45 -330 0 -330 0 0 -45z"/>
<path d="M5390 545 l0 -405 265 0 265 0 0 55 0 55 -199 0 c-116 0 -202 4 -206
10 -3 5 -3 63 1 130 l7 120 182 0 c158 0 184 2 189 16 10 27 7 72 -6 81 -7 4
-91 8 -187 8 -144 1 -176 4 -184 16 -6 9 -7 58 -2 122 l7 107 194 0 194 0 0
45 0 45 -260 0 -260 0 0 -405z"/>
</g>
</svg>
